<?xml version="1.0" encoding="utf-8"?>
<!-- Generator: Adobe Illustrator 17.0.2, SVG Export Plug-In . SVG Version: 6.00 Build 0)  -->
<!DOCTYPE svg PUBLIC "-//W3C//DTD SVG 1.1//EN" "http://www.w3.org/Graphics/SVG/1.1/DTD/svg11.dtd">
<svg version="1.1" id="Capa_1" xmlns="http://www.w3.org/2000/svg" xmlns:xlink="http://www.w3.org/1999/xlink" x="0px" y="0px"
	 width="140px" height="55px" viewBox="0 0 140 55" style="enable-background:new 0 0 140 55;" xml:space="preserve">
<g>
	<g>
		<g>
			<path style="fill:#C1C1C1;" d="M110.904,50.798c0,1.543-1.065,2.854-2.718,2.854c-1.721,0-2.486-1.174-2.486-2.144v-0.751h1.721
				v0.751c0,0.287,0.273,0.779,0.765,0.779c0.696,0,0.97-0.724,0.97-1.489c0-1.024-0.3-1.748-1.406-1.748h-0.328v-1.366h0.068
				c1.106,0,1.475-0.642,1.475-1.311c0-0.71-0.328-1.161-0.779-1.161c-0.492,0-0.765,0.505-0.765,0.792v0.642h-1.721v-0.655
				c0-0.97,0.765-2.144,2.486-2.144c1.502,0,2.404,0.915,2.404,2.404c0,0.97-0.642,1.857-1.256,2.117
				C110.207,48.749,110.904,49.473,110.904,50.798z"/>
			<path style="fill:#C1C1C1;" d="M117.281,49.801c0,0.137-0.013,1.215-0.013,1.338c0,1.502-0.929,2.513-2.69,2.513
				c-1.721,0-2.499-1.174-2.499-2.144c0,0,0-4.575,0-4.794c0-1.543,1.011-2.868,2.568-2.868c1.652,0,2.39,1.174,2.39,2.144v0.655
				h-1.652v-0.642c0-0.41-0.26-0.792-0.738-0.792c-0.655,0-0.847,0.738-0.847,1.502v1.502c0.205-0.287,0.56-0.533,1.161-0.533
				C116.516,47.684,117.281,48.681,117.281,49.801z M115.533,49.801c0-0.478-0.41-0.751-0.86-0.751
				c-0.533,0-0.874,0.246-0.874,0.492v1.967c0,0.287,0.273,0.779,0.779,0.779c0.655,0,0.942-0.369,0.942-1.148
				C115.52,51.03,115.533,49.938,115.533,49.801z"/>
			<path style="fill:#C1C1C1;" d="M123.548,45.991v5.531c0,0.97-0.819,2.13-2.54,2.13s-2.554-1.16-2.554-2.13v-5.531
				c0-0.97,0.833-2.144,2.554-2.144S123.548,45.021,123.548,45.991z M121.828,46.004c0-0.287-0.328-0.792-0.82-0.792
				c-0.505,0-0.833,0.505-0.833,0.792v5.504c0,0.287,0.328,0.779,0.833,0.779c0.492,0,0.82-0.492,0.82-0.779V46.004z"/>
		</g>
	</g>
	<linearGradient id="SVGID_1_" gradientUnits="userSpaceOnUse" x1="16.4516" y1="27.4982" x2="68.0081" y2="27.4982">
		<stop  offset="0" style="stop-color:#0469E5"/>
		<stop  offset="1" style="stop-color:#141E36"/>
	</linearGradient>
	<path style="fill:url(#SVGID_1_);" d="M44.447,3.288c0,1.071-0.868,1.94-1.94,1.94c-1.071,0-1.94-0.868-1.94-1.94
		s0.868-1.94,1.94-1.94C43.578,1.348,44.447,2.216,44.447,3.288z M42.507,7.404c-1.071,0-1.94,0.868-1.94,1.94s0.868,1.94,1.94,1.94
		c1.071,0,1.94-0.868,1.94-1.94S43.578,7.404,42.507,7.404z M48.111,14.879c-1.071,0-1.94,0.868-1.94,1.94s0.868,1.94,1.94,1.94
		c1.071,0,1.94-0.868,1.94-1.94S49.182,14.879,48.111,14.879z M36.877,14.879c-1.071,0-1.94,0.868-1.94,1.94s0.868,1.94,1.94,1.94
		c1.071,0,1.94-0.868,1.94-1.94S37.948,14.879,36.877,14.879z M51.457,48.138c-1.071,0-1.94,0.868-1.94,1.94s0.868,1.94,1.94,1.94
		s1.94-0.868,1.94-1.94S52.528,48.138,51.457,48.138z M32.465,18.758c-1.071,0-1.94,0.868-1.94,1.94s0.868,1.94,1.94,1.94
		c1.071,0,1.94-0.868,1.94-1.94S33.536,18.758,32.465,18.758z M56.869,45.262c-1.071,0-1.94,0.868-1.94,1.94
		c0,1.071,0.868,1.94,1.94,1.94c1.071,0,1.94-0.868,1.94-1.94C58.809,46.131,57.94,45.262,56.869,45.262z M30.525,24.213
		c-1.071,0-1.94,0.868-1.94,1.94s0.868,1.94,1.94,1.94s1.94-0.868,1.94-1.94S31.597,24.213,30.525,24.213z M61.229,41.099
		c-1.071,0-1.94,0.868-1.94,1.94c0,1.071,0.868,1.94,1.94,1.94c1.071,0,1.94-0.868,1.94-1.94
		C63.169,41.968,62.301,41.099,61.229,41.099z M31.208,30.029c-1.071,0-1.94,0.868-1.94,1.94c0,1.071,0.868,1.94,1.94,1.94
		s1.94-0.868,1.94-1.94C33.148,30.898,32.279,30.029,31.208,30.029z M31.208,30.029c-1.071,0-1.94,0.868-1.94,1.94
		c0,1.071,0.868,1.94,1.94,1.94s1.94-0.868,1.94-1.94C33.148,30.898,32.279,30.029,31.208,30.029z M34.568,34.721
		c-1.071,0-1.94,0.868-1.94,1.94c0,1.071,0.868,1.94,1.94,1.94s1.94-0.868,1.94-1.94C36.508,35.589,35.639,34.721,34.568,34.721z
		 M34.568,34.721c-1.071,0-1.94,0.868-1.94,1.94c0,1.071,0.868,1.94,1.94,1.94s1.94-0.868,1.94-1.94
		C36.508,35.589,35.639,34.721,34.568,34.721z M39.604,37.375c-1.071,0-1.94,0.868-1.94,1.94c0,1.071,0.868,1.94,1.94,1.94
		c1.071,0,1.94-0.868,1.94-1.94C41.544,38.244,40.675,37.375,39.604,37.375z M45.503,37.375c-1.071,0-1.94,0.868-1.94,1.94
		c0,1.071,0.868,1.94,1.94,1.94c1.071,0,1.94-0.868,1.94-1.94C47.443,38.244,46.574,37.375,45.503,37.375z M50.615,34.721
		c-1.071,0-1.94,0.868-1.94,1.94c0,1.071,0.868,1.94,1.94,1.94c1.071,0,1.94-0.868,1.94-1.94
		C52.554,35.589,51.686,34.721,50.615,34.721z M36.508,8.501c-1.071,0-1.94,0.868-1.94,1.94s0.868,1.94,1.94,1.94
		c1.071,0,1.94-0.868,1.94-1.94S37.579,8.501,36.508,8.501z M36.508,8.501c-1.071,0-1.94,0.868-1.94,1.94s0.868,1.94,1.94,1.94
		c1.071,0,1.94-0.868,1.94-1.94S37.579,8.501,36.508,8.501z M31.208,11.283c-1.071,0-1.94,0.868-1.94,1.94s0.868,1.94,1.94,1.94
		s1.94-0.868,1.94-1.94S32.279,11.283,31.208,11.283z M27.328,15.789c-1.071,0-1.94,0.868-1.94,1.94s0.868,1.94,1.94,1.94
		s1.94-0.868,1.94-1.94S28.4,15.789,27.328,15.789z M45.638,49.769c-1.071,0-1.94,0.868-1.94,1.94c0,1.071,0.868,1.94,1.94,1.94
		c1.071,0,1.94-0.868,1.94-1.94C47.578,50.637,46.709,49.769,45.638,49.769z M39.604,49.769c-1.071,0-1.94,0.868-1.94,1.94
		c0,1.071,0.868,1.94,1.94,1.94c1.071,0,1.94-0.868,1.94-1.94C41.544,50.637,40.675,49.769,39.604,49.769z M24.83,21.326
		c-1.071,0-1.94,0.868-1.94,1.94s0.868,1.94,1.94,1.94s1.94-0.868,1.94-1.94S25.902,21.326,24.83,21.326z M24.443,27.238
		c-1.071,0-1.94,0.868-1.94,1.94s0.868,1.94,1.94,1.94s1.94-0.868,1.94-1.94S25.514,27.238,24.443,27.238z M25.889,33.013
		c-1.071,0-1.94,0.868-1.94,1.94c0,1.071,0.868,1.94,1.94,1.94s1.94-0.868,1.94-1.94C27.828,33.881,26.96,33.013,25.889,33.013z
		 M29.129,38.071c-1.071,0-1.94,0.868-1.94,1.94c0,1.071,0.868,1.94,1.94,1.94s1.94-0.868,1.94-1.94
		C31.069,38.939,30.2,38.071,29.129,38.071z M33.959,41.663c-1.071,0-1.94,0.868-1.94,1.94s0.868,1.94,1.94,1.94
		s1.94-0.868,1.94-1.94S35.031,41.663,33.959,41.663z M39.604,43.603c-1.071,0-1.94,0.868-1.94,1.94c0,1.071,0.868,1.94,1.94,1.94
		c1.071,0,1.94-0.868,1.94-1.94C41.544,44.472,40.675,43.603,39.604,43.603z M45.503,43.603c-1.071,0-1.94,0.868-1.94,1.94
		c0,1.071,0.868,1.94,1.94,1.94c1.071,0,1.94-0.868,1.94-1.94C47.443,44.472,46.574,43.603,45.503,43.603z M45.503,43.603
		c-1.071,0-1.94,0.868-1.94,1.94c0,1.071,0.868,1.94,1.94,1.94c1.071,0,1.94-0.868,1.94-1.94
		C47.443,44.472,46.574,43.603,45.503,43.603z M51.229,41.663c-1.071,0-1.94,0.868-1.94,1.94s0.868,1.94,1.94,1.94
		c1.071,0,1.94-0.868,1.94-1.94S52.3,41.663,51.229,41.663z M55.933,37.855c-1.071,0-1.94,0.868-1.94,1.94
		c0,1.071,0.868,1.94,1.94,1.94c1.071,0,1.94-0.868,1.94-1.94C57.872,38.723,57.004,37.855,55.933,37.855z M36.508,2.141
		c-1.071,0-1.94,0.868-1.94,1.94s0.868,1.94,1.94,1.94c1.071,0,1.94-0.868,1.94-1.94S37.579,2.141,36.508,2.141z M30.807,4.448
		c-1.071,0-1.94,0.868-1.94,1.94s0.868,1.94,1.94,1.94s1.94-0.868,1.94-1.94S31.879,4.448,30.807,4.448z M25.889,8.031
		c-1.071,0-1.94,0.868-1.94,1.94s0.868,1.94,1.94,1.94s1.94-0.868,1.94-1.94S26.96,8.031,25.889,8.031z M33.663,48.138
		c-1.071,0-1.94,0.868-1.94,1.94s0.868,1.94,1.94,1.94c1.071,0,1.94-0.868,1.94-1.94S34.734,48.138,33.663,48.138z M22.009,12.633
		c-1.071,0-1.94,0.868-1.94,1.94s0.868,1.94,1.94,1.94s1.94-0.868,1.94-1.94S23.08,12.633,22.009,12.633z M19.469,18.189
		c-1.071,0-1.94,0.868-1.94,1.94s0.868,1.94,1.94,1.94s1.94-0.868,1.94-1.94S20.54,18.189,19.469,18.189z M18.391,24.213
		c-1.071,0-1.94,0.868-1.94,1.94s0.868,1.94,1.94,1.94c1.071,0,1.94-0.868,1.94-1.94S19.463,24.213,18.391,24.213z M18.737,30.285
		c-1.071,0-1.94,0.868-1.94,1.94c0,1.071,0.868,1.94,1.94,1.94s1.94-0.868,1.94-1.94C20.677,31.154,19.808,30.285,18.737,30.285z
		 M20.677,35.915c-1.071,0-1.94,0.868-1.94,1.94c0,1.071,0.868,1.94,1.94,1.94s1.94-0.868,1.94-1.94
		C22.616,36.783,21.748,35.915,20.677,35.915z M51.995,26.153c0,1.071,0.868,1.94,1.94,1.94c1.071,0,1.94-0.868,1.94-1.94
		s-0.868-1.94-1.94-1.94C52.863,24.213,51.995,25.082,51.995,26.153z M51.312,31.969c0,1.071,0.868,1.94,1.94,1.94
		c1.071,0,1.94-0.868,1.94-1.94c0-1.071-0.868-1.94-1.94-1.94C52.181,30.029,51.312,30.898,51.312,31.969z M57.69,23.266
		c0,1.071,0.868,1.94,1.94,1.94c1.071,0,1.94-0.868,1.94-1.94s-0.868-1.94-1.94-1.94C58.558,21.326,57.69,22.195,57.69,23.266z
		 M58.077,29.177c0,1.071,0.868,1.94,1.94,1.94c1.071,0,1.94-0.868,1.94-1.94s-0.868-1.94-1.94-1.94
		C58.945,27.238,58.077,28.106,58.077,29.177z M56.631,34.953c0,1.071,0.868,1.94,1.94,1.94c1.071,0,1.94-0.868,1.94-1.94
		c0-1.071-0.868-1.94-1.94-1.94C57.5,33.013,56.631,33.881,56.631,34.953z M63.051,20.129c0,1.071,0.868,1.94,1.94,1.94
		c1.071,0,1.94-0.868,1.94-1.94s-0.868-1.94-1.94-1.94C63.92,18.189,63.051,19.058,63.051,20.129z M64.129,26.153
		c0,1.071,0.868,1.94,1.94,1.94c1.071,0,1.94-0.868,1.94-1.94s-0.868-1.94-1.94-1.94C64.997,24.213,64.129,25.082,64.129,26.153z
		 M63.783,32.225c0,1.071,0.868,1.94,1.94,1.94c1.071,0,1.94-0.868,1.94-1.94c0-1.071-0.868-1.94-1.94-1.94
		C64.651,30.285,63.783,31.154,63.783,32.225z M61.843,37.855c0,1.071,0.868,1.94,1.94,1.94c1.071,0,1.94-0.868,1.94-1.94
		c0-1.071-0.868-1.94-1.94-1.94C62.712,35.915,61.843,36.783,61.843,37.855z M23.949,41.255c-1.071,0-1.94,0.868-1.94,1.94
		c0,1.071,0.868,1.94,1.94,1.94s1.94-0.868,1.94-1.94C25.889,42.123,25.02,41.255,23.949,41.255z M28.442,45.262
		c-1.071,0-1.94,0.868-1.94,1.94c0,1.071,0.868,1.94,1.94,1.94s1.94-0.868,1.94-1.94C30.382,46.131,29.514,45.262,28.442,45.262z
		 M52.554,18.625c-1.071,0-1.94,0.868-1.94,1.94s0.868,1.94,1.94,1.94c1.071,0,1.94-0.868,1.94-1.94S53.626,18.625,52.554,18.625z
		 M57.72,15.663c-1.071,0-1.94,0.868-1.94,1.94s0.868,1.94,1.94,1.94c1.071,0,1.94-0.868,1.94-1.94S58.792,15.663,57.72,15.663z
		 M48.319,8.327c-1.071,0-1.94,0.868-1.94,1.94s0.868,1.94,1.94,1.94c1.071,0,1.94-0.868,1.94-1.94S49.39,8.327,48.319,8.327z
		 M53.623,11.283c-1.071,0-1.94,0.868-1.94,1.94s0.868,1.94,1.94,1.94c1.071,0,1.94-0.868,1.94-1.94S54.694,11.283,53.623,11.283z
		 M54.178,4.258c-1.071,0-1.94,0.868-1.94,1.94s0.868,1.94,1.94,1.94c1.071,0,1.94-0.868,1.94-1.94S55.25,4.258,54.178,4.258z
		 M48.517,1.964c-1.071,0-1.94,0.868-1.94,1.94s0.868,1.94,1.94,1.94c1.071,0,1.94-0.868,1.94-1.94S49.588,1.964,48.517,1.964z
		 M59.082,8.031c-1.071,0-1.94,0.868-1.94,1.94s0.868,1.94,1.94,1.94c1.071,0,1.94-0.868,1.94-1.94S60.153,8.031,59.082,8.031z
		 M62.962,12.633c-1.071,0-1.94,0.868-1.94,1.94s0.868,1.94,1.94,1.94c1.071,0,1.94-0.868,1.94-1.94S64.033,12.633,62.962,12.633z
		 M44.461,25.437c0,1.088-0.882,1.971-1.971,1.971l0,0c-1.088,0-1.971-0.882-1.971-1.971V15.49c0-1.088,0.882-1.971,1.971-1.971l0,0
		c1.088,0,1.971,0.882,1.971,1.971V25.437z"/>
	<g>
		<path style="fill:#0469E5;" d="M82.054,21.434c0,0.996-0.155,1.864-0.465,2.606c-0.31,0.741-0.75,1.356-1.319,1.842
			c-0.57,0.487-1.264,0.852-2.083,1.095c-0.819,0.243-1.737,0.365-2.755,0.365c-0.465,0-1.007-0.019-1.627-0.058
			c-0.62-0.039-1.228-0.119-1.826-0.241V15.841c0.598-0.111,1.22-0.185,1.867-0.224c0.647-0.039,1.203-0.058,1.668-0.058
			c0.985,0,1.878,0.111,2.681,0.332c0.802,0.221,1.491,0.57,2.066,1.046c0.575,0.476,1.018,1.084,1.328,1.826
			C81.899,19.504,82.054,20.395,82.054,21.434z M74.569,25.086c0.122,0.011,0.263,0.019,0.424,0.025
			c0.16,0.006,0.351,0.008,0.572,0.008c1.295,0,2.255-0.326,2.88-0.979c0.625-0.653,0.938-1.554,0.938-2.705
			c0-1.206-0.299-2.119-0.896-2.738c-0.597-0.619-1.543-0.929-2.838-0.929c-0.177,0-0.359,0.003-0.548,0.008
			c-0.188,0.006-0.365,0.019-0.531,0.042V25.086z"/>
		<path style="fill:#0469E5;" d="M86.751,15.941c0,0.454-0.147,0.811-0.439,1.07c-0.293,0.26-0.639,0.39-1.037,0.39
			s-0.744-0.13-1.037-0.39c-0.293-0.26-0.44-0.617-0.44-1.07c0-0.454,0.147-0.81,0.44-1.07c0.293-0.26,0.639-0.39,1.037-0.39
			s0.744,0.13,1.037,0.39C86.604,15.13,86.751,15.487,86.751,15.941z M86.518,27.193h-2.473v-8.73h2.473V27.193z"/>
		<path style="fill:#0469E5;" d="M96.377,26.098c0,1.427-0.363,2.486-1.087,3.178c-0.725,0.691-1.845,1.037-3.361,1.037
			c-0.531,0-1.062-0.047-1.593-0.141c-0.531-0.094-1.024-0.219-1.477-0.374l0.432-2.075c0.387,0.155,0.794,0.277,1.219,0.365
			c0.426,0.088,0.91,0.133,1.453,0.133c0.708,0,1.209-0.155,1.502-0.465c0.293-0.31,0.44-0.708,0.44-1.195v-0.315
			c-0.265,0.122-0.539,0.213-0.821,0.274c-0.282,0.061-0.589,0.091-0.921,0.091c-1.206,0-2.13-0.357-2.772-1.07
			c-0.642-0.714-0.963-1.712-0.963-2.996c0-0.642,0.1-1.225,0.299-1.751s0.49-0.977,0.871-1.353
			c0.382-0.376,0.849-0.667,1.402-0.871c0.553-0.205,1.178-0.307,1.876-0.307c0.298,0,0.606,0.014,0.921,0.042
			c0.315,0.028,0.628,0.064,0.938,0.108c0.309,0.044,0.606,0.097,0.888,0.158c0.282,0.061,0.534,0.125,0.755,0.191V26.098z
			 M90.949,22.546c0,1.383,0.558,2.074,1.676,2.074c0.254,0,0.492-0.033,0.714-0.099c0.221-0.066,0.409-0.144,0.564-0.232v-3.95
			c-0.122-0.022-0.265-0.041-0.431-0.058c-0.166-0.017-0.36-0.025-0.581-0.025c-0.653,0-1.14,0.216-1.46,0.647
			C91.11,21.335,90.949,21.883,90.949,22.546z"/>
		<path style="fill:#0469E5;" d="M101.405,15.941c0,0.454-0.147,0.811-0.44,1.07c-0.293,0.26-0.639,0.39-1.037,0.39
			c-0.398,0-0.744-0.13-1.037-0.39c-0.293-0.26-0.44-0.617-0.44-1.07c0-0.454,0.147-0.81,0.44-1.07
			c0.293-0.26,0.639-0.39,1.037-0.39c0.398,0,0.744,0.13,1.037,0.39C101.259,15.13,101.405,15.487,101.405,15.941z M101.173,27.193
			H98.7v-8.73h2.473V27.193z"/>
		<path style="fill:#0469E5;" d="M103.413,16.29l2.473-0.398v2.573h2.971v2.058h-2.971v3.07c0,0.52,0.091,0.935,0.274,1.245
			c0.183,0.31,0.551,0.465,1.104,0.465c0.266,0,0.539-0.025,0.821-0.075s0.539-0.119,0.772-0.207l0.349,1.925
			c-0.299,0.122-0.631,0.227-0.996,0.315c-0.365,0.088-0.813,0.133-1.344,0.133c-0.675,0-1.234-0.091-1.676-0.274
			c-0.443-0.183-0.797-0.437-1.062-0.764c-0.266-0.326-0.451-0.722-0.556-1.187c-0.105-0.465-0.157-0.979-0.157-1.544V16.29z"/>
		<path style="fill:#0469E5;" d="M113.67,18.231c0.73,0,1.338,0.083,1.826,0.249c0.487,0.166,0.877,0.404,1.17,0.714
			c0.293,0.31,0.501,0.686,0.622,1.129c0.122,0.443,0.183,0.935,0.183,1.477v5.145c-0.354,0.077-0.847,0.169-1.477,0.274
			c-0.631,0.105-1.394,0.158-2.29,0.158c-0.565,0-1.076-0.05-1.535-0.149c-0.459-0.099-0.855-0.263-1.187-0.489
			c-0.332-0.227-0.587-0.523-0.764-0.888c-0.177-0.365-0.266-0.813-0.266-1.344c0-0.509,0.102-0.94,0.307-1.295
			c0.205-0.354,0.478-0.636,0.821-0.846c0.343-0.21,0.735-0.362,1.178-0.456c0.442-0.094,0.902-0.141,1.377-0.141
			c0.321,0,0.606,0.014,0.855,0.042c0.249,0.028,0.451,0.064,0.606,0.108v-0.232c0-0.42-0.127-0.758-0.382-1.012
			c-0.255-0.254-0.697-0.382-1.328-0.382c-0.421,0-0.836,0.031-1.245,0.091c-0.409,0.061-0.764,0.147-1.062,0.257l-0.315-1.992
			c0.144-0.044,0.324-0.091,0.539-0.141c0.215-0.05,0.451-0.094,0.705-0.133c0.254-0.039,0.523-0.072,0.805-0.1
			C113.097,18.245,113.382,18.231,113.67,18.231z M113.869,25.467c0.244,0,0.476-0.005,0.697-0.017
			c0.221-0.011,0.398-0.027,0.531-0.05v-1.875c-0.099-0.022-0.249-0.044-0.448-0.066c-0.199-0.022-0.382-0.033-0.548-0.033
			c-0.232,0-0.451,0.014-0.655,0.041c-0.205,0.028-0.385,0.08-0.539,0.158c-0.155,0.078-0.277,0.183-0.365,0.315
			c-0.089,0.133-0.133,0.299-0.133,0.498c0,0.388,0.13,0.656,0.39,0.805C113.058,25.393,113.415,25.467,113.869,25.467z"/>
		<path style="fill:#0469E5;" d="M123.197,27.359c-0.719-0.011-1.303-0.089-1.751-0.232s-0.802-0.346-1.062-0.606
			c-0.26-0.26-0.437-0.575-0.531-0.946c-0.094-0.371-0.141-0.788-0.141-1.253v-9.609l2.473-0.398v9.51
			c0,0.221,0.017,0.421,0.05,0.598c0.033,0.177,0.097,0.326,0.191,0.448c0.094,0.122,0.229,0.221,0.407,0.299
			c0.176,0.077,0.415,0.127,0.713,0.149L123.197,27.359z"/>
	</g>
	<g>
		<path style="fill:#141E36;" d="M71.906,39.958v-8.787h5.008v0.748h-4.146v3.094h3.677v0.748h-3.677v4.197H71.906z"/>
		<path style="fill:#141E36;" d="M79.462,31.425c0,0.194-0.059,0.349-0.178,0.463c-0.118,0.114-0.262,0.171-0.431,0.171
			c-0.169,0-0.313-0.057-0.431-0.171c-0.119-0.114-0.178-0.268-0.178-0.463c0-0.194,0.059-0.349,0.178-0.463
			c0.118-0.114,0.262-0.171,0.431-0.171c0.169,0,0.313,0.057,0.431,0.171C79.403,31.076,79.462,31.231,79.462,31.425z
			 M79.272,39.958h-0.824v-6.555h0.824V39.958z"/>
		<path style="fill:#141E36;" d="M81.453,33.631c0.245-0.068,0.575-0.143,0.989-0.228c0.414-0.084,0.921-0.127,1.521-0.127
			c0.499,0,0.915,0.072,1.249,0.216c0.334,0.144,0.6,0.349,0.799,0.615c0.198,0.266,0.34,0.585,0.425,0.957
			c0.084,0.372,0.127,0.782,0.127,1.23v3.664h-0.824V36.56c0-0.465-0.032-0.858-0.095-1.179c-0.063-0.321-0.169-0.583-0.317-0.786
			c-0.148-0.203-0.342-0.349-0.583-0.437c-0.241-0.089-0.543-0.133-0.907-0.133c-0.389,0-0.725,0.021-1.008,0.064
			c-0.283,0.042-0.467,0.08-0.552,0.114v5.757h-0.824V33.631z"/>
		<path style="fill:#141E36;" d="M90.658,33.251c0.431,0,0.797,0.061,1.097,0.184c0.3,0.123,0.543,0.291,0.729,0.507
			c0.186,0.216,0.321,0.471,0.406,0.767c0.084,0.296,0.127,0.617,0.127,0.963v4.134c-0.085,0.025-0.207,0.053-0.368,0.082
			c-0.161,0.03-0.346,0.061-0.558,0.095c-0.212,0.033-0.446,0.061-0.704,0.082c-0.258,0.021-0.522,0.032-0.792,0.032
			c-0.347,0-0.666-0.038-0.957-0.114c-0.292-0.076-0.545-0.197-0.761-0.362c-0.216-0.165-0.385-0.376-0.507-0.634
			c-0.123-0.258-0.184-0.573-0.184-0.945c0-0.355,0.068-0.659,0.203-0.913c0.135-0.253,0.326-0.463,0.571-0.627
			c0.245-0.165,0.537-0.285,0.875-0.362c0.338-0.076,0.706-0.114,1.103-0.114c0.118,0,0.243,0.006,0.374,0.019
			c0.131,0.013,0.258,0.03,0.38,0.051c0.123,0.021,0.228,0.042,0.317,0.063c0.089,0.021,0.15,0.04,0.184,0.057v-0.406
			c0-0.229-0.017-0.45-0.051-0.666c-0.034-0.216-0.108-0.41-0.222-0.583c-0.114-0.173-0.274-0.313-0.482-0.418
			c-0.207-0.106-0.48-0.159-0.817-0.159c-0.482,0-0.841,0.034-1.078,0.102c-0.237,0.068-0.41,0.123-0.52,0.165l-0.114-0.723
			c0.144-0.068,0.365-0.131,0.665-0.19C89.874,33.281,90.235,33.251,90.658,33.251z M90.734,39.362c0.321,0,0.602-0.011,0.843-0.032
			c0.241-0.021,0.446-0.048,0.615-0.082V36.94c-0.093-0.042-0.241-0.087-0.444-0.133c-0.203-0.047-0.482-0.07-0.837-0.07
			c-0.203,0-0.414,0.015-0.634,0.045c-0.22,0.03-0.423,0.093-0.609,0.19c-0.186,0.097-0.338,0.23-0.456,0.4
			c-0.119,0.169-0.178,0.393-0.178,0.672c0,0.245,0.04,0.452,0.12,0.621c0.08,0.169,0.194,0.304,0.342,0.406
			c0.148,0.101,0.325,0.175,0.533,0.222C90.237,39.339,90.472,39.362,90.734,39.362z"/>
		<path style="fill:#141E36;" d="M95.121,33.631c0.245-0.068,0.575-0.143,0.989-0.228c0.414-0.084,0.921-0.127,1.521-0.127
			c0.499,0,0.915,0.072,1.249,0.216c0.334,0.144,0.6,0.349,0.799,0.615c0.198,0.266,0.34,0.585,0.425,0.957
			c0.084,0.372,0.127,0.782,0.127,1.23v3.664h-0.824V36.56c0-0.465-0.032-0.858-0.095-1.179c-0.063-0.321-0.169-0.583-0.317-0.786
			c-0.148-0.203-0.342-0.349-0.583-0.437c-0.241-0.089-0.543-0.133-0.907-0.133c-0.389,0-0.725,0.021-1.008,0.064
			c-0.283,0.042-0.467,0.08-0.552,0.114v5.757h-0.824V33.631z"/>
		<path style="fill:#141E36;" d="M105.049,40.097c-0.507,0-0.956-0.081-1.344-0.241c-0.389-0.161-0.712-0.391-0.97-0.691
			c-0.258-0.3-0.455-0.659-0.59-1.078c-0.135-0.418-0.203-0.881-0.203-1.388c0-0.516,0.07-0.985,0.209-1.408
			c0.139-0.423,0.34-0.786,0.602-1.091s0.579-0.539,0.951-0.704s0.791-0.247,1.256-0.247c0.355,0,0.687,0.03,0.995,0.089
			c0.308,0.059,0.547,0.135,0.716,0.228l-0.216,0.71c-0.169-0.084-0.359-0.152-0.57-0.203c-0.212-0.051-0.495-0.076-0.85-0.076
			c-0.727,0-1.279,0.235-1.654,0.704c-0.376,0.469-0.565,1.135-0.565,1.997c0,0.389,0.042,0.746,0.127,1.071
			c0.084,0.326,0.222,0.604,0.412,0.837s0.435,0.414,0.736,0.545c0.3,0.131,0.665,0.197,1.097,0.197c0.355,0,0.653-0.04,0.894-0.12
			c0.241-0.08,0.417-0.15,0.526-0.209l0.178,0.71c-0.152,0.084-0.391,0.167-0.717,0.247
			C105.744,40.057,105.404,40.097,105.049,40.097z"/>
		<path style="fill:#141E36;" d="M109.182,31.425c0,0.194-0.059,0.349-0.178,0.463c-0.118,0.114-0.262,0.171-0.431,0.171
			c-0.169,0-0.313-0.057-0.431-0.171c-0.119-0.114-0.178-0.268-0.178-0.463c0-0.194,0.059-0.349,0.178-0.463
			c0.118-0.114,0.262-0.171,0.431-0.171c0.169,0,0.313,0.057,0.431,0.171C109.123,31.076,109.182,31.231,109.182,31.425z
			 M108.992,39.958h-0.824v-6.555h0.824V39.958z"/>
		<path style="fill:#141E36;" d="M111.173,33.631c0.245-0.068,0.575-0.143,0.989-0.228c0.414-0.084,0.921-0.127,1.521-0.127
			c0.499,0,0.915,0.072,1.249,0.216c0.334,0.144,0.6,0.349,0.799,0.615c0.198,0.266,0.34,0.585,0.425,0.957
			c0.084,0.372,0.127,0.782,0.127,1.23v3.664h-0.824V36.56c0-0.465-0.032-0.858-0.095-1.179c-0.063-0.321-0.169-0.583-0.317-0.786
			c-0.148-0.203-0.342-0.349-0.583-0.437c-0.241-0.089-0.543-0.133-0.907-0.133c-0.389,0-0.725,0.021-1.008,0.064
			c-0.283,0.042-0.467,0.08-0.552,0.114v5.757h-0.824V33.631z"/>
		<path style="fill:#141E36;" d="M122.66,39.197c-0.051,0.042-0.127,0.091-0.228,0.146c-0.102,0.055-0.226,0.112-0.374,0.171
			c-0.148,0.059-0.317,0.108-0.507,0.146c-0.19,0.038-0.404,0.057-0.64,0.057c-0.38,0-0.748-0.059-1.103-0.178
			c-0.355-0.119-0.666-0.304-0.932-0.558s-0.48-0.581-0.64-0.983c-0.161-0.401-0.241-0.889-0.241-1.464
			c0-0.465,0.071-0.896,0.216-1.293c0.143-0.397,0.349-0.742,0.615-1.033c0.266-0.292,0.591-0.52,0.976-0.684
			c0.384-0.165,0.818-0.248,1.3-0.248c0.608,0,1.097,0.04,1.464,0.121c0.368,0.08,0.67,0.158,0.907,0.234v5.985
			c0,0.981-0.254,1.68-0.761,2.099c-0.507,0.418-1.272,0.628-2.295,0.628c-0.423,0-0.805-0.032-1.147-0.095
			c-0.342-0.063-0.636-0.137-0.881-0.222l0.165-0.748c0.203,0.093,0.48,0.173,0.83,0.241c0.351,0.068,0.704,0.101,1.059,0.101
			c0.778,0,1.342-0.15,1.692-0.45c0.351-0.3,0.526-0.814,0.526-1.54V39.197z M122.647,34.202c-0.144-0.042-0.33-0.082-0.558-0.12
			c-0.228-0.038-0.554-0.057-0.976-0.057c-0.355,0-0.67,0.061-0.945,0.184c-0.274,0.123-0.509,0.296-0.704,0.52
			c-0.194,0.224-0.342,0.49-0.444,0.799s-0.152,0.649-0.152,1.02c0,0.431,0.059,0.801,0.178,1.11
			c0.119,0.309,0.273,0.56,0.463,0.754c0.19,0.194,0.408,0.336,0.653,0.425c0.245,0.089,0.494,0.133,0.748,0.133
			c0.372,0,0.712-0.055,1.021-0.165c0.308-0.11,0.547-0.236,0.717-0.381V34.202z"/>
	</g>
</g>
<g>
</g>
<g>
</g>
<g>
</g>
<g>
</g>
<g>
</g>
<g>
</g>
</svg>
